<?xml version="1.0" encoding="utf-8"?>
<!-- Generator: Adobe Illustrator 21.0.0, SVG Export Plug-In . SVG Version: 6.00 Build 0)  -->
<svg version="1.1" id="图层_1" xmlns="http://www.w3.org/2000/svg" xmlns:xlink="http://www.w3.org/1999/xlink" x="0px" y="0px"
	 viewBox="0 0 261 82" style="enable-background:new 0 0 261 82;" xml:space="preserve">
<style type="text/css">
	.st0{fill:#DC3E13;}
	.st1{fill:#7B7C79;}
	.st2{fill:#4B4C4A;}
	.st3{fill:#4C4A49;}
	.st4{fill:#2D3536;}
</style>
<g>
	<path class="st0" d="M135.1,1.2c-0.4-0.5-1-0.7-1.7-0.7l-41.3,0c-1.5,0-2.9,0.7-3.9,1.9l-8.6,11c-0.3,0.4-0.5,1-0.5,1.6
		c0.1,1.1,1,1.8,2.1,1.8H124c0.6,0,1.3-0.3,1.6-0.8l9.4-12.1C135.7,3,135.7,1.9,135.1,1.2z"/>
	<path class="st1" d="M77.8,81.6C77.8,81.6,77.8,81.6,77.8,81.6C77.8,81.6,77.8,81.6,77.8,81.6z"/>
	<path class="st1" d="M77.4,81.7C77.4,81.7,77.4,81.7,77.4,81.7C77.4,81.7,77.4,81.7,77.4,81.7z"/>
	<path class="st1" d="M121.5,21.5c-0.4-0.7-1.1-1.2-1.9-1.2H76.9c-0.7,0-1.3,0.3-1.7,0.8l-19.4,26l18.9,31.5c0,0,1.1,1.7,1.3,1.9
		c0.4,0.4,1,0.8,1.5,0.9c0.3,0,0.4,0,0.5,0c0.2-0.1,0.5-0.3,0.6-0.5l42.8-57.3C121.8,23.1,121.9,22.2,121.5,21.5z"/>
	<path class="st2" d="M77.8,81.6c-0.1,0.1-0.2,0.1-0.4,0.1C77.6,81.7,77.7,81.6,77.8,81.6z"/>
	<path class="st3" d="M31.2,80.1l1.2-1.6c0,0,0,0,0,0l23.4-31.3l-9.2-15.3c-0.4-0.7-1.2-1.1-2-1.1l-42.6,0c-0.5,0-1,0.1-1.4,0.5
		c-0.8,0.7-1,1.8-0.5,2.7l28.1,46.8c0.2,0.3,0.4,0.6,0.7,0.7c0.1,0,0.1,0,0.3,0C30.1,81.4,31.2,80.1,31.2,80.1z"/>
	<path class="st2" d="M77.3,81.7c-0.2,0-0.3,0.1-0.5,0.1C77.1,81.8,77.2,81.8,77.3,81.7z"/>
	<path class="st4" d="M77.5,81.5c-0.5-0.1-1.1-0.5-1.5-0.9c-0.2-0.2-1.3-1.9-1.3-1.9L55.8,47.2L32.4,78.5c0,0,0,0,0,0l-1.2,1.6
		c0,0-1,1.3-1.9,1.3c-0.2,0-0.3,0-0.3,0c0.4,0.2,0.8,0.4,1.2,0.4h0.3h0h3.2h0.3h38.5h0.2h3.3h0.4h0.3c0.2,0,0.3,0,0.5-0.1
		c0,0,0,0,0.1,0c0.1,0,0.2-0.1,0.4-0.1c0,0,0,0,0,0c0,0,0.1,0,0.1-0.1C77.9,81.5,77.8,81.5,77.5,81.5z"/>
</g>
<g>
	<path class="st4" d="M200.9,50.3l-14.3,31.6l-28-61.6h13.7l14.4,32.3l14.3-32.3l14.4,32.3l14.3-32.3h13.6l-27.9,61.6L200.9,50.3z"
		/>
	<path class="st4" d="M261.4,20.4l0,61.6h-13.6l0-61.6H261.4z"/>
	<path class="st4" d="M140.3,20.4v38.5c0,6.7-3.2,9.4-8.3,9.4c-0.1,0-5.6,0-5.6,0V82c3.8,0,7,0,8.2,0c12.9,0,19.4-7,19.4-21V20.4
		H140.3z"/>
</g>
</svg>
